<svg data-v-423bf9ae="" xmlns="http://www.w3.org/2000/svg" viewBox="0 0 563.5519874727034 60" class="font"><!----><!----><!----><g data-v-423bf9ae="" id="049a8a83-e656-4dc4-8e6e-86b88c977ddf" fill="white" transform="matrix(6.054490506946714,0,0,6.054490506946714,-1.4530836522183677,-17.134207672738235)"><path d="M5.04 3.46L1.00 12.67L0.24 12.67L4.66 2.90L5.52 2.90L9.96 12.67L9.11 12.67L7.66 9.39L3.55 9.39L3.83 8.78L7.39 8.78L5.04 3.46ZM11.29 2.90L12.01 2.90L12.01 12.06L17.67 12.06L17.67 12.67L11.29 12.67L11.29 2.90ZM19.11 2.90L25.53 2.90L25.53 3.51L19.82 3.51L19.82 7.41L25.29 7.41L25.29 8.03L19.82 8.03L19.82 12.06L25.62 12.06L25.62 12.67L19.11 12.67L19.11 2.90ZM27.64 2.90L28.36 2.90L28.36 12.67L27.64 12.67L27.64 2.90ZM34.08 2.90L35.06 2.90L30.41 7.53L35.23 12.67L34.15 12.67L29.69 7.77L29.69 7.34L34.08 2.90ZM36.46 12.33L36.46 12.33L36.46 11.58L36.46 11.58Q37.99 12.13 39.85 12.13L39.85 12.13L39.85 12.13Q42.92 12.13 42.92 9.80L42.92 9.80L42.92 9.80Q42.92 8.09 40.92 8.09L40.92 8.09L38.91 8.09L38.91 8.09Q36.18 8.09 36.18 5.63L36.18 5.63L36.18 5.63Q36.18 2.83 40.18 2.83L40.18 2.83L40.18 2.83Q41.82 2.83 43.36 3.24L43.36 3.24L43.36 3.92L43.36 3.92Q41.82 3.45 40.18 3.45L40.18 3.45L40.18 3.45Q36.90 3.45 36.90 5.63L36.90 5.63L36.90 5.63Q36.90 7.41 38.91 7.41L38.91 7.41L40.92 7.41L40.92 7.41Q43.63 7.41 43.63 9.80L43.63 9.80L43.63 9.80Q43.63 12.74 39.85 12.74L39.85 12.74L39.85 12.74Q37.99 12.74 36.46 12.33ZM49.43 3.46L45.39 12.67L44.63 12.67L49.05 2.90L49.90 2.90L54.35 12.67L53.49 12.67L52.04 9.39L47.93 9.39L48.21 8.78L51.78 8.78L49.43 3.46ZM56.33 12.67L55.68 12.67L55.68 2.90L56.60 2.90L63.13 11.46L63.13 2.90L63.78 2.90L63.78 12.67L63.20 12.67L56.33 3.71L56.33 12.67ZM66.68 12.06L69.38 12.06L69.38 12.06Q73.45 12.06 73.45 7.52L73.45 7.52L73.45 7.52Q73.45 3.51 69.38 3.51L69.38 3.51L66.68 3.51L66.68 12.06ZM69.38 12.67L65.97 12.67L65.97 2.90L69.45 2.90L69.45 2.90Q74.24 2.90 74.24 7.52L74.24 7.52L74.24 7.52Q74.24 12.67 69.38 12.67L69.38 12.67ZM79.97 3.46L75.93 12.67L75.16 12.67L79.58 2.90L80.44 2.90L84.88 12.67L84.03 12.67L82.58 9.39L78.47 9.39L78.75 8.78L82.31 8.78L79.97 3.46ZM86.93 12.67L86.21 12.67L86.21 2.90L90.25 2.90L90.25 2.90Q92.90 2.90 92.90 5.24L92.90 5.24L92.90 5.24Q92.90 7.27 90.02 8.12L90.02 8.12L93.32 12.67L92.34 12.67L89.09 8.14L89.09 7.66L89.09 7.66Q92.10 7.21 92.10 5.30L92.10 5.30L92.10 5.30Q92.10 3.53 90.13 3.53L90.13 3.53L86.93 3.53L86.93 12.67Z"></path></g><!----><!----></svg>